<svg xmlns="http://www.w3.org/2000/svg" height="2829.333" width="2829.333" xml:space="preserve"><path style="fill:#f57a3e;fill-opacity:1;fill-rule:nonzero;stroke:none" d="M5138.21 14077c1098.03 1045.5 2573.2 1700.1 4199.54 1739.6v483.4c-1757.75-39.9-3352.06-749.2-4539.2-1883.3l339.66-339.7M14189.5 14416.7c-1187.1 1134.1-2781.5 1843.4-4539.18 1883.3v-483.4c1626.28-39.5 3101.58-694 4199.58-1739.5l339.6 339.6" transform="matrix(.14896 0 0 -.14896 0 2829.333)"/><path style="fill:#f57a3e;fill-opacity:1;fill-rule:nonzero;stroke:none" d="M10432 3556.8c-1816.98 44.1-3464.99 775.4-4691.71 1943.4l-379.42-379.5c1326.26-1267 3107.4-2059.4 5071.13-2103.9v540M5113.93 15859.2c-1276.06-1335.7-2070.49-3132.9-2104.6-5113.2h540.14c33.71 1833.5 766.95 3497.6 1943.93 4733.7l-379.47 379.5" transform="matrix(.13333 0 0 -.13333 0 2829.333)"/><path style="fill:#f57a3e;fill-opacity:1;fill-rule:nonzero;stroke:none" d="M16300 9622.1c-30.6 1773.2-741.9 3382.4-1884.6 4578.4l-339.7-339.7c1053.9-1106.9 1710.4-2596.9 1740.7-4238.7h483.6" transform="matrix(.1489 0 0 -.1489 0 2829.333)"/><path style="fill:#f57a3e;fill-opacity:1;fill-rule:nonzero;stroke:none" d="M10781.2 3016.8c1963.7 44.5 3744.9 836.9 5071.1 2103.9l-379.4 379.5c-1226.7-1168-2874.8-1899.3-4691.7-1943.4v-540" transform="matrix(.13333 0 0 -.13333 0 2829.333)"/><path style="fill:#f57a3e;fill-opacity:1;fill-rule:nonzero;stroke:none" d="M14416.8 4806.73c1126.4 1179.18 1834 2759.81 1883.2 4503.42h-484c-48.6-1612.15-701.2-3073.68-1739-4163.67l339.8-339.75" transform="matrix(.1489 0 0 -.1489 0 2829.333)"/><path style="fill:#f57a3e;fill-opacity:1;fill-rule:nonzero;stroke:none" d="M5493.32 5747.1C4334.41 6964.3 3605.67 8596.4 3551.4 10396.7h-540.46c54.83-1947.1 845.02-3712.2 2102.97-5029l379.41 379.4" transform="matrix(.13333 0 0 -.13333 0 2829.333)"/><path style="fill:#f57a3e;fill-opacity:1;fill-rule:nonzero;stroke:none" d="M2406.99 10682.6h237.43c33.89 2063.9 863.2 3938.9 2193.88 5328.6l-170.77 170.7c-32.69 32.7-49.23 75.2-50.38 118.1-1427.18-1471.1-2312.68-3467.9-2333.74-5669.2 31.48 32 75.17 51.8 123.58 51.8" transform="matrix(.13412 0 0 -.13412 0 2829.333)"/><path style="fill:#f57a3e;fill-opacity:1;fill-rule:nonzero;stroke:none" d="m4257.37 14235 147.94-147.9c1196.12 1145.3 2807.03 1862.2 4581.17 1900.6v312.3c-1875.45-38.9-3574.78-802.1-4831.44-2021.3 37.13-1 73.98-15.3 102.33-43.7" transform="matrix(.15478 0 0 -.15478 0 2829.333)"/><path style="fill:#f57a3e;fill-opacity:1;fill-rule:nonzero;stroke:none" d="m4695.21 4949 171.72 171.7c-1320.43 1379.1-2150.54 3233.1-2205.47 5276h-240.19c-48.12 0-91.65 19.5-123.22 51C2341 8267.1 3227.35 6291 4644.53 4830.2c1.16 43.1 17.8 85.9 50.68 118.8" transform="matrix(.13333 0 0 -.13333 0 2829.333)"/><path style="fill:#f57a3e;fill-opacity:1;fill-rule:nonzero;stroke:none" d="m16181.9 4676.34-170.8 170.76c-1380.9-1322.22-3240.8-2149.86-5289-2194.22v-49.92c0-95.87-77.7-173.64-173.6-173.64-96 0-173.7 77.77-173.7 173.64v49.92c-2048.21 44.36-3908.01 872-5288.91 2194.22l-170.78-170.76c-32.73-32.72-75.27-49.33-118.14-50.52 1489.51-1445.04 3517.65-2335.64 5751.53-2335.64 2233.9.1 4262 890.6 5751.5 2335.64-42.9 1.19-85.4 17.8-118.1 50.52" transform="matrix(.13407 0 0 -.13407 0 2829.333)"/><path style="fill:#f57a3e;fill-opacity:1;fill-rule:nonzero;stroke:none" d="m14233.5 14026.6-148.1-148c1153.4-1204.6 1872.3-2829.9 1901.7-4618.82h205.8c42 0 79.9-17.24 107.1-44.98-18.3 1908.1-785.8 3639-2022.8 4914.1-1.1-37.1-15.5-74-43.7-102.3M16193.8 8959.31h-207c-47.3-1760.46-762.6-3358.14-1900.5-4546.57l148-147.96c28.3-28.35 42.7-65.24 43.7-102.38 1221.2 1258.84 1985 2961.65 2022 4840.86-27.1-27.15-64.7-43.95-106.2-43.95" transform="matrix(.15473 0 0 -.15473 0 2829.333)"/><path style="fill:#f57a3e;fill-opacity:1;fill-rule:nonzero;stroke:none" d="M9287.3 15987.7c1774.1-38.4 3385-755.3 4581.1-1900.6l148 147.9c28.3 28.4 65.2 42.7 102.3 43.7-1256.6 1219.2-2956 1982.4-4831.4 2021.3v-312.3" transform="matrix(.15478 0 0 -.15478 0 2829.333)"/><path style="fill:#f89e3e;fill-opacity:1;fill-rule:nonzero;stroke:none" d="M13588.2 7113.99c0 209.68 85.5 400.9 223 538.08 137.1 137.56 328.5 223.05 538.1 222.96 209.7.09 400.9-85.4 538.2-222.96 137.5-137.18 223-328.4 222.9-538.08.1-209.68-85.4-400.99-222.9-538.18-137.3-137.46-328.5-223.04-538.2-222.95-209.6-.09-401 85.49-538.1 222.95-137.5 137.19-223 328.5-223 538.18zm-293.1 1480.08c-115.5-115.81-276.9-187.93-453.5-187.83-176.6-.1-338 72.02-453.5 187.83-116 115.62-188.1 277-188 453.53-.1 176.64 72 338.01 188 453.54 115.5 115.9 276.9 188.02 453.5 187.93 176.6.09 338-72.03 453.5-187.93 115.8-115.53 187.9-276.9 187.9-453.54 0-176.53-72.1-337.91-187.9-453.53zm3004.9 1194.7h-5877.1l4145.2-4145.07c1032.2 1087.19 1681 2539.96 1731.9 4145.07" transform="matrix(.14161 0 0 -.14161 0 2829.333)"/><path style="fill:#f89e3e;fill-opacity:1;fill-rule:nonzero;stroke:none" d="M6550.18 12873.9c122.73 122.9 294.12 199.6 481.7 199.5 187.57.1 359-76.6 481.73-199.5 122.99-122.8 199.63-294.2 199.53-481.7.1-187.6-76.51-359-199.51-481.8-122.73-123-294.15-199.6-481.75-199.5-187.58-.1-359 76.5-481.72 199.5-123.01 122.8-199.61 294.2-199.52 481.8-.09 187.5 76.51 358.9 199.54 481.7zm-893.7-1597.2c-122.72-123-294.15-199.6-481.72-199.5-187.57-.1-359 76.5-481.73 199.5-123 122.7-199.61 294.2-199.51 481.7-.1 187.6 76.51 359 199.51 481.7 122.73 123.1 294.16 199.7 481.73 199.6 187.57.1 359-76.5 481.72-199.6 123.03-122.7 199.61-294.1 199.54-481.7.07-187.5-76.54-359-199.54-481.7zM3898.71 10746h6328.39l-4486.62 4486.6C4626.13 14058.9 3932.44 12484 3898.71 10746" transform="matrix(.13333 0 0 -.13333 0 2829.333)"/><path style="fill:#f89e3e;fill-opacity:1;fill-rule:nonzero;stroke:none" d="M11400 12187.9c-176.5-.1-337.8 72-453.3 187.8-115.8 115.5-187.9 276.8-187.8 453.2-.1 176.6 72 337.9 187.8 453.4 115.5 115.8 276.8 187.9 453.3 187.8 176.5.1 337.9-72 453.3-187.8a639.215 639.215 0 0 0 187.8-453.4c.1-176.4-71.9-337.7-187.8-453.2-115.4-115.8-276.8-187.9-453.3-187.8zm-856.4 2770c-.1 176.6 72 337.8 187.8 453.4 115.5 115.8 276.8 187.9 453.4 187.8 176.5.1 337.8-72 453.4-187.8 115.6-115.6 187.7-276.8 187.6-453.4.1-176.4-72-337.7-187.7-453.2-115.5-115.8-276.8-187.9-453.3-187.8-176.6-.1-337.9 72-453.4 187.8-115.8 115.5-187.9 276.8-187.8 453.2zm-397.8 1342.1v-5915.3l4182.7 4182.6c-1095.7 1040.2-2562.6 1691.3-4182.7 1732.7" transform="matrix(.14168 0 0 -.14168 0 2829.333)"/><path style="fill:#f89e3e;fill-opacity:1;fill-rule:nonzero;stroke:none" d="M15272.8 10308.5c-209.6-.1-400.9 85.5-538.1 222.9-137.4 137.2-223 328.4-222.9 538-.1 209.6 85.5 400.9 222.9 538.2 137.2 137.4 328.5 223 538.1 222.9 209.7.1 400.9-85.5 538.1-222.9 137.5-137.3 223-328.6 222.9-538.2.1-209.6-85.4-400.8-222.9-538-137.2-137.4-328.4-223-538.1-222.9zm-1502.4 904.1c-115.6-115.8-276.9-188-453.4-187.9-176.6-.1-338.1 72.1-453.6 187.9-115.8 115.6-187.9 276.9-187.8 453.5-.1 176.5 72 337.9 187.8 453.4 115.6 115.8 277 188 453.6 187.9 176.5.1 337.8-72.1 453.3-187.9 115.9-115.5 188-276.9 187.9-453.4.1-176.6-72-337.9-187.8-453.5zm795.7 3127.6-4223.7-4223.8H16300c-31.7 1636.1-684.8 3118.8-1733.9 4223.8" transform="matrix(.14163 0 0 -.14163 0 2829.333)"/><path style="fill:#f89e3e;fill-opacity:1;fill-rule:nonzero;stroke:none" d="M5352.2 8037.5c122.72 123 294.15 199.6 481.73 199.5 187.57.1 359-76.5 481.7-199.5 123.02-122.8 199.61-294.2 199.55-481.7.06-187.6-76.53-359-199.53-481.8-122.72-123-294.15-199.6-481.72-199.5-187.58-.1-359.01 76.5-481.73 199.5-123.02 122.8-199.64 294.2-199.54 481.8-.1 187.5 76.54 358.9 199.54 481.7zm691.33 2053.7c122.72 123.1 294.15 199.7 481.72 199.6 187.58.1 359.01-76.5 481.73-199.6 123-122.7 199.61-294.1 199.51-481.7.07-187.5-76.53-358.9-199.54-481.7-122.69-123-294.12-199.6-481.7-199.5-187.57-.1-359 76.5-481.72 199.5-123 122.8-199.61 294.2-199.55 481.7-.09 187.6 76.53 359 199.55 481.7zm4099.37 305.5H3900.88c54.14-1704.7 743.26-3247.8 1839.55-4402.5l4402.47 4402.5M9368.71 6644c-187.58-.1-359 76.6-481.73 199.6-123 122.7-199.61 294.1-199.54 481.7-.1 187.5 76.52 358.9 199.54 481.7 122.73 123 294.15 199.7 481.73 199.6 187.58.1 359-76.6 481.73-199.6 123-122.8 199.56-294.2 199.56-481.7 0-187.6-76.58-359-199.59-481.7-122.7-123-294.12-199.7-481.7-199.6zm-24.92-1859.4c-122.74-123-294.15-199.6-481.73-199.5-187.58-.1-358.99 76.5-481.73 199.5-123 122.8-199.61 294.2-199.53 481.7-.1 187.6 76.5 359 199.53 481.8 122.74 123 294.15 199.6 481.73 199.5 187.58.1 358.99-76.5 481.73-199.5 123.03-122.8 199.61-294.2 199.53-481.8.08-187.5-76.53-358.9-199.53-481.7zM10432 10191.9 5987.4 5747.3C7151.64 4641.9 8710.54 3950.2 10432 3906.1v6285.8M11885.2 7603.3c187.6.1 359-76.5 481.7-199.6 123-122.7 199.6-294.1 199.5-481.7.1-187.5-76.5-358.9-199.5-481.6-122.7-123-294.1-199.7-481.7-199.6-187.6-.1-359 76.6-481.8 199.6-123 122.7-199.6 294.1-199.5 481.6-.1 187.6 76.5 359 199.5 481.7 122.8 123.1 294.2 199.7 481.8 199.6zm1009.7-1348.6c122.7 123 294.2 199.6 481.7 199.5 187.6.1 359-76.5 481.7-199.5 123.1-122.8 199.7-294.2 199.6-481.7.1-187.6-76.5-359-199.5-481.8-122.8-123-294.2-199.6-481.8-199.5-187.5-.1-359 76.5-481.7 199.5-123 122.8-199.7 294.2-199.6 481.8-.1 187.6 76.6 358.9 199.6 481.7zm2330.9-507.4-4444.6 4444.6V3906.1c1721.5 44.1 3280.4 735.8 4444.6 1841.2" transform="matrix(.13333 0 0 -.13333 0 2829.333)"/><path style="fill:#f89e3e;fill-opacity:1;fill-rule:nonzero;stroke:none" d="M7094.27 15122.3c176.51 0 337.84-72.1 453.32-187.8 115.77-115.5 187.85-276.8 187.78-453.3.1-176.5-72.01-337.8-187.78-453.4-115.48-115.8-276.81-187.9-453.32-187.8-176.52-.1-337.85 72-453.35 187.8-115.77 115.6-187.86 276.9-187.77 453.4-.09 176.5 72.03 337.8 187.77 453.3 115.5 115.7 276.83 187.8 453.35 187.8zm1268.98-1935.7c115.49 115.8 276.81 187.9 453.34 187.8 176.52.1 337.84-72 453.34-187.8 115.75-115.5 187.8-276.8 187.8-453.3s-72.07-337.8-187.83-453.3c-115.47-115.8-276.79-187.9-453.31-187.8-176.53-.1-337.85 72-453.34 187.8-115.76 115.5-187.85 276.8-187.78 453.3-.1 176.5 72.01 337.8 187.78 453.3zm1453.96-2801.9V16300c-1620.01-41.4-3087-692.5-4182.64-1732.7l4182.64-4182.6" transform="matrix(.14168 0 0 -.14168 0 2829.333)"/><path style="fill:#ef353e;fill-opacity:1;fill-rule:nonzero;stroke:none" d="M14915.8 7231.1c83.7-83.3 197.4-134.3 324.7-134.4 127.3.1 241 51.1 324.6 134.4 83.4 83.7 134.4 197.3 134.5 324.7-.1 127.3-51.1 241-134.5 324.6-83.6 83.4-197.3 134.4-324.6 134.5-127.3-.1-241-51.1-324.7-134.5-83.3-83.6-134.3-197.3-134.4-324.6.1-127.4 51.1-241 134.4-324.7" transform="matrix(.13333 0 0 -.13333 0 2829.333)"/><path style="fill:#ef353e;fill-opacity:1;fill-rule:nonzero;stroke:none" d="M16168.6 11806c-81.7 81.5-192.8 131.4-317.2 131.5-124.4-.1-235.4-50-317.2-131.5-81.4-81.7-131.3-192.8-131.3-317.2 0-124.4 49.9-235.4 131.3-317.2 81.7-81.4 192.8-131.2 317.2-131.3 124.4.1 235.5 49.9 317.2 131.3 81.5 81.8 131.3 192.8 131.4 317.2-.1 124.4-50 235.5-131.4 317.2" transform="matrix(.13646 0 0 -.13646 0 2829.333)"/><path style="fill:#ef353e;fill-opacity:1;fill-rule:nonzero;stroke:none" d="M13639.1 9941.6c-92.2-.1-174.1-36.9-234.8-97.3-60.3-60.6-97.1-142.6-97.2-234.8.1-92.2 36.9-174.1 97.2-234.8 60.6-60.3 142.6-97.1 234.8-97.2 92.2.1 174.1 36.9 234.8 97.2 60.3 60.7 97.1 142.6 97.2 234.8-.1 92.2-36.9 174.2-97.2 234.8-60.7 60.4-142.6 97.2-234.8 97.3M11885.2 6590.1c92.2.1 174.1 36.9 234.7 97.2 60.4 60.6 97.2 142.6 97.3 234.7-.1 92.3-36.9 174.2-97.3 234.8-60.6 60.4-142.5 97.2-234.7 97.3-92.2-.1-174.1-36.9-234.8-97.3-60.4-60.6-97.2-142.5-97.2-234.8 0-92.1 36.8-174.1 97.2-234.7 60.7-60.3 142.6-97.1 234.8-97.2M13376.6 5440.9c92.2.1 174.1 37 234.8 97.3 60.3 60.6 97.1 142.6 97.2 234.8-.1 92.2-36.8 174.1-97.2 234.7-60.6 60.4-142.6 97.2-234.8 97.3-92.2-.1-174.1-36.9-234.8-97.3-60.4-60.6-97.1-142.5-97.2-234.7.1-92.2 36.8-174.1 97.3-234.8 60.6-60.3 142.5-97.2 234.7-97.3M14145.8 12724.1c-92.3-.1-174.2-36.8-234.9-97.2-60.3-60.6-97.1-142.5-97.2-234.7.1-92.2 36.9-174.2 97.3-234.8 60.6-60.4 142.5-97.2 234.8-97.3 92.1.1 174.1 36.9 234.7 97.3 60.4 60.6 97.1 142.6 97.2 234.8-.1 92.2-36.8 174.1-97.2 234.7-60.6 60.4-142.6 97.1-234.7 97.2M11885.2 15562.7c92.2.1 174.1 36.9 234.7 97.2 60.4 60.7 97.2 142.6 97.3 234.8-.1 92.2-36.9 174.1-97.3 234.8-60.6 60.3-142.5 97.1-234.7 97.2-92.2-.1-174.1-36.9-234.8-97.2-60.4-60.7-97.2-142.6-97.2-234.8 0-92.2 36.8-174.1 97.2-234.8 60.7-60.3 142.6-97.1 234.8-97.2M12113.9 13964.4c-92.2-.1-174.1-36.9-234.7-97.2-60.4-60.7-97.2-142.6-97.3-234.9.1-92.1 36.9-174 97.3-234.7 60.6-60.4 142.5-97.2 234.7-97.2 92.3 0 174.2 36.8 234.8 97.2 60.4 60.7 97.2 142.6 97.3 234.7-.1 92.3-37 174.2-97.3 234.9-60.6 60.3-142.5 97.1-234.8 97.2M7538.54 15056c92.22.1 174.12 36.9 234.75 97.3 60.36 60.6 97.18 142.5 97.28 234.8-.1 92.1-36.89 174-97.25 234.7-60.66 60.3-142.56 97.1-234.78 97.2-92.24-.1-174.15-36.9-234.79-97.2-60.37-60.7-97.19-142.6-97.26-234.7.1-92.3 36.89-174.2 97.28-234.8 60.62-60.4 142.53-97.2 234.77-97.3M9368.71 13198.7c92.23.1 174.12 36.9 234.77 97.2 60.36 60.7 97.15 142.6 97.24 234.8-.09 92.2-36.88 174.1-97.24 234.8-60.67 60.4-142.54 97.1-234.77 97.2-92.23-.1-174.13-36.8-234.76-97.2-60.37-60.7-97.2-142.6-97.27-234.8.07-92.2 36.87-174.1 97.25-234.8 60.65-60.3 142.55-97.1 234.78-97.2M5174.76 12090.5c-92.23-.1-174.11-36.9-234.76-97.3-60.37-60.6-97.15-142.6-97.25-234.8.07-92.2 36.88-174.1 97.25-234.8 60.63-60.3 142.53-97.1 234.76-97.2 92.23.1 174.13 36.9 234.78 97.2 60.36 60.7 97.18 142.6 97.26 234.8-.1 92.2-36.92 174.2-97.29 234.8-60.62 60.4-142.52 97.2-234.75 97.3M5833.93 7223.7c92.22.1 174.1 36.9 234.76 97.3 60.33 60.6 97.15 142.6 97.25 234.8-.1 92.2-36.89 174.1-97.25 234.7-60.63 60.4-142.54 97.2-234.76 97.3-92.23-.1-174.13-36.9-234.79-97.3-60.37-60.6-97.17-142.5-97.25-234.7.1-92.2 36.88-174.1 97.27-234.8 60.64-60.4 142.54-97.2 234.77-97.3M8862.06 5598.4c-92.24-.1-174.13-36.9-234.76-97.3-60.37-60.6-97.2-142.6-97.28-234.8.08-92.2 36.89-174.1 97.26-234.7 60.65-60.4 142.54-97.2 234.78-97.3 92.23.1 174.13 36.9 234.79 97.3 60.36 60.6 97.17 142.5 97.24 234.7-.09 92.2-36.9 174.2-97.27 234.8-60.63 60.4-142.53 97.2-234.76 97.3M9368.71 7657.3c-92.23-.1-174.13-36.9-234.76-97.2-60.37-60.7-97.2-142.6-97.27-234.8.07-92.2 36.87-174.1 97.25-234.8 60.65-60.3 142.55-97.1 234.78-97.2 92.23.1 174.12 36.9 234.77 97.2 60.36 60.7 97.15 142.6 97.24 234.8-.09 92.2-36.88 174.1-97.24 234.8-60.67 60.3-142.54 97.1-234.77 97.2M6525.25 9277.5c92.23.1 174.13 36.9 234.77 97.2 60.36 60.7 97.15 142.6 97.25 234.8-.1 92.2-36.89 174.2-97.25 234.8-60.66 60.4-142.54 97.2-234.77 97.3-92.22-.1-174.13-36.9-234.76-97.3-60.36-60.6-97.19-142.6-97.27-234.8.08-92.2 36.88-174.1 97.25-234.8 60.65-60.3 142.56-97.1 234.78-97.2M7031.88 12060.1c92.22.1 174.14 36.9 234.78 97.3 60.37 60.6 97.16 142.6 97.25 234.8-.09 92.2-36.88 174.1-97.25 234.7-60.62 60.4-142.53 97.1-234.78 97.2-92.23-.1-174.13-36.8-234.79-97.2-60.33-60.6-97.15-142.5-97.23-234.7.08-92.2 36.9-174.2 97.26-234.8 60.63-60.4 142.53-97.2 234.76-97.3" transform="matrix(.13333 0 0 -.13333 0 2829.333)"/><path style="fill:#4c1814;fill-opacity:1;fill-rule:nonzero;stroke:none" d="M3928 13867.1c.98-36.5 15.05-72.7 42.86-100.5l145.28-145.2c-1132.06-1182.3-1837.59-2777.5-1866.43-4533.24h-201.98c-41.19 0-78.36-16.91-105.14-44.14 17.92 1872.78 771.25 3571.58 1985.41 4823.08zm4894.6 2135.7v-306.7c-1741.78-37.7-3323.32-741.5-4497.62-1865.9l-145.24 145.2c-27.84 27.9-64.02 42-100.47 42.9 1233.74 1196.9 2902.08 1946.3 4743.33 1984.5zm4938.2-2027.4-145.3-145.2c-1174.3 1124.4-2755.8 1828.2-4497.57 1865.9v306.7c1841.27-38.2 3509.57-787.6 4743.37-1984.5-36.5-.9-72.7-15-100.5-42.9zm2237.1-4931.38c-26.7 27.23-63.9 44.14-105.1 44.14h-202c-28.9 1755.74-734.4 3350.94-1866.4 4533.24l145.3 145.2c27.7 27.8 41.9 64 42.9 100.5 1214.1-1251.5 1967.4-2950.3 1985.3-4823.08zm-1985.3-4959c-1 36.45-15.2 72.65-42.9 100.47l-145.2 145.21c1116.7 1166.34 1818.7 2734.32 1865.1 4462.05h203.2c40.7 0 77.5 16.49 104.2 43.13-36.3-1844.27-786-3515.42-1984.4-4750.86zM8970.27 1947.54c-1899.64 0-3624.35 757.34-4891 1986.18 36.45 1.02 72.63 15.14 100.47 42.97l145.22 145.21C5499.26 2997.5 7080.8 2293.69 8822.6 2255.97v-42.45c0-81.53 66.06-147.67 147.67-147.67 81.53 0 147.66 66.14 147.66 147.67v42.45c1741.77 37.72 3323.37 741.53 4497.67 1865.93l145.2-145.21c27.8-27.83 64-41.95 100.5-42.97-1266.7-1228.84-2991.4-1986.1-4891.03-1986.18ZM4645.91 13091.6c-995.4-1045.4-1615.52-2452.8-1644.04-4003.44h-456.8c28.84 1674.74 700.71 3194.74 1779.91 4324.34zM8822.6 14944c-1536.62-37.3-2930.41-655.8-3967.86-1643.6l-320.92 320.9c1121.65 1071.6 2628.01 1741.8 4288.78 1779.5zm-3758.89-1852.6c984.65 934.9 2303.01 1520 3758.89 1557.2V9332.58Zm4054.22 1557.2c1455.87-37.2 2774.27-622.3 3758.87-1557.1L9117.93 9332.58Zm3967.87-1348.1c-1037.4 987.8-2431.3 1606.2-3967.87 1643.5v456.8c1660.77-37.7 3167.17-707.9 4288.77-1779.5zm1852.9-4212.34c-28.6 1550.64-648.7 2958.04-1644.1 4003.44l320.9 320.9c1079.2-1129.6 1751.1-2649.6 1780-4324.34zm-1644-4227.69c980.1 1029.41 1596.4 2409.72 1642.3 3932.28h457.1c-46.4-1646.71-714.7-3139.5-1778.5-4253.15ZM9117.93 3008.08c1536.57 37.29 2930.47 655.77 3967.87 1643.58l320.9-320.96c-1121.6-1071.53-2628-1741.68-4288.77-1779.32Zm3758.87 1852.56c-984.6-934.87-2303-1519.86-3758.87-1557.15v5316.05zm-7813.11 0 3758.91 3758.9V3303.49c-1455.88 37.29-2774.28 622.28-3758.91 1557.15Zm-208.98-208.98c1037.47-987.81 2431.23-1606.29 3967.89-1643.58v-456.7c-1660.77 37.64-3167.13 707.79-4288.78 1779.32Zm-208.87 208.81-320.88-320.87C3261.08 5653.25 2592.8 7146.04 2546.43 8792.75h457.08c45.9-1522.56 662.21-2902.87 1642.33-3932.28zM8578.1 8792.75 4854.83 5069.44c-927.16 976.57-1509.97 2281.6-1555.76 3723.31Zm-5280.86 295.41C3325.76 10558 3912.43 11890 4854.87 12882.6l3794.45-3794.44Zm11344.16-295.41c-45.7-1441.79-628.5-2746.74-1555.7-3723.31L9362.35 8792.75Zm-5350.18 295.41 3794.48 3794.54c942.4-992.7 1529.1-2324.7 1557.6-3794.54zm-7347.7-252.28c26.7-26.64 63.51-43.13 104.21-43.13h203.13c46.46-1727.73 748.5-3295.71 1865.22-4462.05l-145.22-145.21c-27.81-27.82-41.88-64.02-42.86-100.47C2729.45 5320.46 1979.84 6991.7 1943.52 8835.88Zm1850.35-5036.21c1325.62-1325.84 3157.43-2147.55 5176.4-2147.55 2018.93 0 3850.73 821.71 5176.33 2147.55 1325.9 1325.59 2147.6 3157.43 2147.6 5176.35 0 2018.98-821.7 3850.78-2147.6 5176.48C12821 15478.3 10989.2 16300 8970.27 16300c-2018.95 0-3850.78-821.7-5176.4-2147.5-1325.86-1325.7-2147.56-3157.5-2147.5-5176.48-.06-2018.92 821.64-3850.76 2147.5-5176.35" transform="matrix(.15766 0 0 -.15766 0 2829.333)"/><path style="fill:#4c1814;fill-opacity:1;fill-rule:nonzero;stroke:none" d="M15565.1 7231.1c-83.6-83.3-197.3-134.3-324.6-134.4-127.3.1-241 51.1-324.7 134.4-83.3 83.7-134.3 197.3-134.4 324.7.1 127.3 51.1 241 134.4 324.6 83.7 83.4 197.4 134.4 324.7 134.5 127.3-.1 241-51.1 324.6-134.5 83.4-83.6 134.4-197.3 134.5-324.6-.1-127.4-51.1-241-134.5-324.7zm483.7 324.7c.1 222.7-90.7 425.8-236.7 571.5-145.8 146.1-348.9 236.9-571.6 236.8-222.7.1-425.9-90.7-571.6-236.8-146-145.7-236.8-348.8-236.8-571.5s90.8-425.9 236.8-571.6c145.7-146 348.9-236.9 571.6-236.8 222.7-.1 425.8 90.8 571.6 236.8 146 145.7 236.8 348.9 236.7 571.6" transform="matrix(.13333 0 0 -.13333 0 2829.333)"/><path style="fill:#4c1814;fill-opacity:1;fill-rule:nonzero;stroke:none" d="M15215.6 11563.9c80.1 79.8 188.9 128.6 310.7 128.7 121.9-.1 230.7-48.9 310.7-128.7 79.7-80 128.6-188.8 128.7-310.7-.1-121.8-48.9-230.6-128.7-310.7-80-79.8-188.8-128.6-310.7-128.7-121.8.1-230.7 48.9-310.7 128.7-79.7 80.1-128.6 188.9-128.6 310.7 0 121.9 48.9 230.7 128.6 310.7zm-236.3-857.7c139.4-139.7 333.9-226.7 547-226.6 213.2-.1 407.5 86.9 547.1 226.6 139.7 139.4 226.6 333.9 226.5 547 .1 213.1-86.8 407.5-226.5 547-139.6 139.8-333.9 226.7-547.1 226.7-213.1 0-407.6-86.9-547-226.7-139.7-139.5-226.7-333.9-226.6-547-.1-213.1 86.9-407.6 226.6-547" transform="matrix(.13932 0 0 -.13932 0 2829.333)"/><path style="fill:#4c1814;fill-opacity:1;fill-rule:nonzero;stroke:none" d="M13873.9 9374.7c-60.7-60.3-142.6-97.1-234.8-97.2-92.2.1-174.2 36.9-234.8 97.2-60.3 60.7-97.1 142.6-97.2 234.8.1 92.2 36.9 174.2 97.2 234.8 60.7 60.4 142.6 97.2 234.8 97.3 92.2-.1 174.1-36.9 234.8-97.3 60.3-60.6 97.1-142.6 97.2-234.8-.1-92.2-36.9-174.1-97.2-234.8zm-234.8 916.1c-187.6.1-359-76.5-481.7-199.6-123.1-122.7-199.7-294.1-199.6-481.7-.1-187.5 76.5-358.9 199.6-481.7 122.7-123 294.1-199.6 481.7-199.5 187.6-.1 359 76.5 481.7 199.5 123 122.8 199.6 294.2 199.6 481.7 0 187.6-76.6 359-199.6 481.7-122.7 123.1-294.1 199.7-481.7 199.6M11650.4 7156.8c60.7 60.4 142.6 97.2 234.8 97.3 92.2-.1 174.1-36.9 234.7-97.3 60.4-60.6 97.2-142.5 97.3-234.8-.1-92.1-36.9-174.1-97.3-234.7-60.6-60.3-142.5-97.1-234.7-97.2-92.2.1-174.1 36.9-234.8 97.2-60.4 60.6-97.2 142.6-97.2 234.7 0 92.3 36.8 174.2 97.2 234.8zm234.8-916c187.6-.1 359 76.6 481.7 199.6 123 122.7 199.6 294.1 199.5 481.6.1 187.6-76.5 359-199.5 481.7-122.7 123.1-294.1 199.7-481.7 199.6-187.6.1-359-76.5-481.8-199.6-123-122.7-199.6-294.1-199.5-481.7-.1-187.5 76.5-358.9 199.5-481.6 122.8-123 294.2-199.7 481.8-199.6M13141.8 6007.7c60.7 60.4 142.6 97.2 234.8 97.3 92.2-.1 174.2-36.9 234.8-97.3 60.4-60.6 97.1-142.5 97.2-234.7-.1-92.2-36.9-174.2-97.2-234.8-60.7-60.3-142.6-97.2-234.8-97.3-92.2.1-174.1 37-234.7 97.3-60.5 60.7-97.2 142.6-97.3 234.8.1 92.2 36.8 174.1 97.2 234.7zm234.8-916c187.6-.1 359 76.5 481.8 199.5 123 122.8 199.6 294.2 199.5 481.8.1 187.5-76.5 358.9-199.6 481.7-122.7 123-294.1 199.6-481.7 199.5-187.5.1-359-76.5-481.7-199.5-123-122.8-199.7-294.1-199.6-481.7-.1-187.6 76.6-359 199.6-481.8 122.7-123 294.2-199.6 481.7-199.5M14380.5 12157.4c-60.6-60.4-142.6-97.2-234.7-97.3-92.3.1-174.2 36.9-234.8 97.3-60.4 60.6-97.2 142.6-97.3 234.8.1 92.2 36.9 174.1 97.2 234.7 60.7 60.4 142.6 97.1 234.9 97.2 92.1-.1 174.1-36.8 234.7-97.2 60.4-60.6 97.1-142.5 97.2-234.7-.1-92.2-36.8-174.2-97.2-234.8zm-234.7 916c-187.6.1-359-76.6-481.8-199.5-123-122.8-199.6-294.2-199.5-481.7-.1-187.6 76.5-359 199.5-481.8 122.7-123 294.2-199.6 481.8-199.5 187.5-.1 358.9 76.5 481.7 199.5 123 122.8 199.6 294.2 199.5 481.8.1 187.5-76.5 358.9-199.6 481.7-122.7 122.9-294.1 199.6-481.6 199.5" transform="matrix(.13333 0 0 -.13333 0 2829.333)"/><path style="fill:#4c1814;fill-opacity:1;fill-rule:nonzero;stroke:none" d="M11360.8 15629.9c0 90.7 36.2 171.3 95.6 231 59.7 59.3 140.2 95.5 230.9 95.6 90.6-.1 171.2-36.3 230.8-95.6 59.4-59.7 95.5-140.3 95.6-231-.1-90.6-36.2-171.1-95.6-230.8-59.6-59.3-140.2-95.5-230.8-95.6-90.7.1-171.2 36.3-230.9 95.6-59.4 59.7-95.6 140.2-95.6 230.8zm800.1-473.6c121 120.7 196.3 289.2 196.2 473.6.1 184.5-75.2 353-196.1 473.8-120.7 120.9-289.3 196.3-473.7 196.2-184.5.1-353.1-75.3-473.8-196.2-121-120.8-196.3-289.3-196.2-473.8-.1-184.4 75.2-352.9 196.2-473.6 120.7-121 289.3-196.3 473.8-196.2 184.4-.1 353 75.2 473.6 196.2" transform="matrix(.1356 0 0 -.1356 0 2829.333)"/><path style="fill:#4c1814;fill-opacity:1;fill-rule:nonzero;stroke:none" d="M12348.7 13397.6c-60.6-60.4-142.5-97.2-234.8-97.2-92.2 0-174.1 36.8-234.7 97.2-60.4 60.7-97.2 142.6-97.3 234.7.1 92.3 36.9 174.2 97.3 234.9 60.6 60.3 142.5 97.1 234.7 97.2 92.3-.1 174.2-36.9 234.8-97.2 60.3-60.7 97.2-142.6 97.3-234.9-.1-92.1-36.9-174-97.3-234.7zm246.9 716.5c-122.6 123-294.1 199.7-481.7 199.6-187.5.1-359-76.6-481.7-199.6-123-122.8-199.6-294.2-199.5-481.8-.1-187.5 76.5-358.9 199.5-481.6 122.7-123 294.2-199.7 481.7-199.6 187.6-.1 359.1 76.6 481.7 199.6 123.1 122.7 199.7 294.1 199.6 481.6.1 187.6-76.5 359-199.6 481.8M7773.29 15153.3c-60.63-60.4-142.53-97.2-234.75-97.3-92.24.1-174.15 36.9-234.77 97.3-60.39 60.6-97.18 142.5-97.28 234.8.07 92.1 36.89 174 97.26 234.7 60.64 60.3 142.55 97.1 234.79 97.2 92.22-.1 174.12-36.9 234.78-97.2 60.36-60.7 97.15-142.6 97.25-234.7-.1-92.3-36.92-174.2-97.28-234.8zm-234.75 916c-187.58.1-359.01-76.6-481.74-199.6-122.99-122.7-199.63-294.1-199.53-481.6-.1-187.6 76.51-359 199.53-481.8 122.73-123 294.16-199.7 481.74-199.6 187.56-.1 358.99 76.6 481.71 199.6 123.01 122.8 199.64 294.2 199.54 481.8.07 187.5-76.53 358.9-199.54 481.6-122.72 123-294.15 199.7-481.71 199.6M9603.48 13295.9c-60.65-60.3-142.54-97.1-234.77-97.2-92.23.1-174.13 36.9-234.78 97.2-60.38 60.7-97.18 142.6-97.25 234.8.07 92.2 36.9 174.1 97.27 234.8 60.63 60.4 142.53 97.1 234.76 97.2 92.23-.1 174.1-36.8 234.77-97.2 60.36-60.7 97.15-142.6 97.24-234.8-.09-92.2-36.88-174.1-97.24-234.8zm-234.77 916.1c-187.58.1-359-76.6-481.73-199.6-123.02-122.8-199.64-294.2-199.54-481.7-.07-187.6 76.54-359 199.54-481.7 122.73-123 294.15-199.7 481.73-199.6 187.58-.1 359 76.6 481.7 199.6 123.01 122.7 199.59 294.1 199.59 481.7 0 187.5-76.56 358.9-199.56 481.7-122.73 123-294.15 199.7-481.73 199.6M5409.54 11523.6c-60.65-60.3-142.55-97.1-234.78-97.2-92.23.1-174.13 36.9-234.76 97.2-60.37 60.7-97.18 142.6-97.25 234.8.1 92.2 36.88 174.2 97.25 234.8 60.65 60.4 142.53 97.2 234.76 97.3 92.23-.1 174.13-36.9 234.75-97.3 60.37-60.6 97.19-142.6 97.29-234.8-.08-92.2-36.9-174.1-97.26-234.8zm-234.78 916.1c-187.57.1-359-76.5-481.73-199.6-123-122.7-199.61-294.1-199.51-481.7-.1-187.5 76.51-359 199.51-481.7 122.73-123 294.16-199.6 481.73-199.5 187.57-.1 359 76.5 481.72 199.5 123 122.7 199.61 294.2 199.54 481.7.07 187.6-76.51 359-199.54 481.7-122.72 123.1-294.15 199.7-481.72 199.6M5501.89 7555.8c.08 92.2 36.88 174.1 97.25 234.7 60.66 60.4 142.56 97.2 234.79 97.3 92.22-.1 174.13-36.9 234.76-97.3 60.36-60.6 97.15-142.5 97.25-234.7-.1-92.2-36.92-174.2-97.25-234.8-60.66-60.4-142.54-97.2-234.76-97.3-92.23.1-174.13 36.9-234.77 97.3-60.39 60.7-97.17 142.6-97.27 234.8zm813.76-481.8c123 122.8 199.59 294.2 199.53 481.8.06 187.5-76.53 358.9-199.55 481.7-122.7 123-294.13 199.6-481.7 199.5-187.58.1-359.01-76.5-481.73-199.5-123-122.8-199.64-294.2-199.54-481.7-.1-187.6 76.52-359 199.54-481.8 122.72-123 294.15-199.6 481.73-199.5 187.57-.1 359 76.5 481.72 199.5M9096.85 5031.6c-60.66-60.4-142.56-97.2-234.79-97.3-92.24.1-174.13 36.9-234.78 97.3-60.37 60.6-97.18 142.5-97.26 234.7.08 92.2 36.91 174.2 97.28 234.8 60.63 60.4 142.52 97.2 234.76 97.3 92.23-.1 174.13-36.9 234.76-97.3 60.37-60.6 97.18-142.6 97.27-234.8-.07-92.2-36.88-174.1-97.24-234.7zm-234.79 916c-187.58.1-358.99-76.5-481.73-199.5-123.03-122.8-199.63-294.2-199.53-481.8-.08-187.5 76.53-358.9 199.53-481.7 122.74-123 294.15-199.6 481.73-199.5 187.58-.1 358.99 76.5 481.73 199.5 123 122.8 199.61 294.2 199.53 481.7.08 187.6-76.5 359-199.53 481.8-122.74 123-294.15 199.6-481.73 199.5M9603.48 7090.5c-60.65-60.3-142.54-97.1-234.77-97.2-92.23.1-174.13 36.9-234.78 97.2-60.38 60.7-97.18 142.6-97.25 234.8.07 92.2 36.9 174.1 97.27 234.8 60.63 60.3 142.53 97.1 234.76 97.2 92.23-.1 174.1-36.9 234.77-97.2 60.36-60.7 97.15-142.6 97.24-234.8-.09-92.2-36.88-174.1-97.24-234.8zm-234.77 916.1c-187.58.1-359-76.6-481.73-199.6-123.02-122.8-199.64-294.2-199.54-481.7-.07-187.6 76.54-359 199.54-481.7 122.73-123 294.15-199.7 481.73-199.6 187.58-.1 359 76.6 481.7 199.6 123.01 122.7 199.59 294.1 199.59 481.7 0 187.5-76.56 358.9-199.56 481.7-122.73 123-294.15 199.7-481.73 199.6M6290.49 9844.3c60.63 60.4 142.54 97.2 234.76 97.3 92.23-.1 174.11-36.9 234.77-97.3 60.36-60.6 97.15-142.6 97.25-234.8-.1-92.2-36.89-174.1-97.25-234.8-60.64-60.3-142.54-97.1-234.77-97.2-92.22.1-174.13 36.9-234.78 97.2-60.37 60.7-97.17 142.6-97.25 234.8.08 92.2 36.91 174.2 97.27 234.8zm234.76-916c187.58-.1 359.01 76.5 481.7 199.5 123.01 122.8 199.61 294.2 199.54 481.7.1 187.6-76.51 359-199.51 481.7-122.72 123.1-294.15 199.7-481.73 199.6-187.57.1-359-76.5-481.72-199.6-123.02-122.7-199.64-294.1-199.55-481.7-.06-187.5 76.55-358.9 199.55-481.7 122.72-123 294.15-199.6 481.72-199.5M6797.09 12626.9c60.66 60.4 142.56 97.1 234.79 97.2 92.25-.1 174.16-36.8 234.78-97.2 60.37-60.6 97.16-142.5 97.25-234.7-.09-92.2-36.88-174.2-97.25-234.8-60.64-60.4-142.56-97.2-234.78-97.3-92.23.1-174.13 36.9-234.76 97.3-60.36 60.6-97.18 142.6-97.26 234.8.08 92.2 36.9 174.1 97.23 234.7zm234.79-916c187.6-.1 359.02 76.5 481.75 199.5 123 122.8 199.61 294.2 199.51 481.8.1 187.5-76.54 358.9-199.53 481.7-122.73 122.9-294.16 199.6-481.73 199.5-187.58.1-358.97-76.6-481.7-199.5-123.03-122.8-199.63-294.2-199.54-481.7-.09-187.6 76.51-359 199.52-481.8 122.72-123 294.14-199.6 481.72-199.5" transform="matrix(.13333 0 0 -.13333 0 2829.333)"/></svg>